<?xml version="1.0" encoding="UTF-8"?>
<svg width="104px" height="59px" viewBox="0 0 104 59" version="1.1" xmlns="http://www.w3.org/2000/svg" xmlns:xlink="http://www.w3.org/1999/xlink">
    <!-- Generator: Sketch 58 (84663) - https://sketch.com -->
    <title>Arrow1</title>
    <desc>Created with Sketch.</desc>
    <defs>
        <polygon id="path-1" points="0 0 104 0 104 59 0 59"></polygon>
    </defs>
    <g id="Arrow1" stroke="none" stroke-width="1" fill="none" fill-rule="evenodd">
        <g id="Group-3">
            <mask id="mask-2" fill="white">
                <use xlink:href="#path-1"></use>
            </mask>
            <g id="Clip-2"></g>
            <path d="M103.658006,54.5432283 C93.4298657,34.0467332 76.303321,19.9555047 52.7515198,12.6592418 C36.3187684,7.56928386 20.2647714,6.99040484 10.0855981,7.3359419 C10.0218824,7.33832903 9.98825467,7.26373122 10.028372,7.21419827 L12.0088684,4.77514818 C13.6418782,2.76399115 12.0554752,-0.239615192 9.49563791,0.0152109366 L9.13576218,0.0510178868 C8.39772197,0.124422135 7.71867778,0.491443374 7.2484795,1.07091918 L0.553021179,9.32143729 C-0.300061272,10.3723713 -0.149621421,11.9240058 0.889888453,12.7863565 L8.92750623,19.4613688 C9.57646245,20.0002634 10.4100762,20.2562831 11.2454599,20.1733303 C13.881992,19.910746 14.8890541,16.5544412 12.8407122,14.8542079 L11.0961999,13.4064135 C11.0431035,13.3622516 11.0696517,13.2751214 11.1380871,13.273331 C20.9042883,13.0023918 35.8178922,13.6552718 51.0241164,18.3656761 C73.0266821,25.1815291 88.9839256,38.3000021 98.4527868,57.3558642 C98.9707719,58.3978465 100.010872,59 101.090499,59 C101.643292,59 102.206114,58.8424494 102.714659,58.5058641 C103.985434,57.663804 104.34236,55.9146345 103.658006,54.5432283" id="Fill-1" fill="#D63E6F" mask="url(#mask-2)"></path>
        </g>
    </g>
</svg>