<?xml version="1.0" encoding="UTF-8"?>
<svg width="110px" height="110px" viewBox="0 0 110 110" version="1.1" xmlns="http://www.w3.org/2000/svg" xmlns:xlink="http://www.w3.org/1999/xlink">
    <!-- Generator: Sketch 58 (84663) - https://sketch.com -->
    <title>StarIcon</title>
    <desc>Created with Sketch.</desc>
    <g id="Page-1" stroke="none" stroke-width="1" fill="none" fill-rule="evenodd">
        <g id="StarIcon">
            <circle id="Oval" fill="#F7B500" cx="55" cy="55" r="55"></circle>
            <circle id="Oval" fill="#FA6400" cx="55" cy="55" r="45"></circle>
            <path d="M33.9983869,43.0215008 C37.4102355,43.0215008 40.8218662,43.0138514 44.2337149,43.0278388 C44.9380065,43.0306801 45.2371998,42.684271 45.4416012,42.0428134 C47.4788608,35.6420054 49.5381295,29.2479726 51.6024101,22.8554697 C51.9057437,21.9165592 52.2820777,21.0080279 53.2291234,20.5049152 C55.5429134,19.2753271 57.7207262,20.3525827 58.5823503,23.0718387 C60.5688364,29.3406398 62.6128512,35.5913007 64.5895312,41.86338 C64.8564735,42.7115904 65.2504584,42.9777898 66.1297335,42.9725445 C72.7751787,42.9318934 79.4208419,42.9408541 86.0662871,42.9450067 C88.5441648,42.9465365 90.0904685,44.4368602 89.9958947,46.7257823 C89.9549273,47.7151789 89.5705304,48.5509316 88.7498737,49.1502083 C85.5886239,51.4590189 74.4653044,59.5807256 72.0273046,61.2786761 C71.2914157,61.7909681 71.2051225,62.3211815 71.466617,63.1116934 C73.5768771,69.4947984 75.6638206,75.8857714 77.7538148,82.2756517 C78.4034106,84.2623128 77.6243751,86.1270205 75.7825826,86.8825637 C74.4480893,87.4298243 73.2081699,87.0681165 72.0985618,86.251378 C67.0190325,82.5125648 61.952142,78.7567044 56.878932,75.009149 C55.0850802,73.6840526 55.0767995,73.6790258 53.2670401,75.0080562 C48.6514454,78.3978378 44.0694092,81.8346085 39.41045,85.1631948 C38.2446207,85.9961063 37.2254461,87.1828576 35.5191949,87.1166356 C33.1223805,87.0237499 31.5037299,84.9024592 32.2461562,82.6096031 C33.7904988,77.8409607 38.1121301,64.5027933 38.7878753,62.6243167 C38.9970709,62.0414316 38.7482154,61.8672436 38.3664335,61.5916463 C35.0145106,59.1720285 23.899036,51.1534796 21.7325546,49.5125718 C19.5791479,47.8812804 19.4222512,45.3421133 21.322662,43.7464463 C22.113029,43.0829146 23.1025675,42.9576828 24.0844791,42.9515633 C27.389115,42.9303635 33.9983869,42.9954928 33.9983869,43.0215008" id="Fill-1" fill="#FAAE31"></path>
        </g>
    </g>
</svg>