<?xml version="1.0" encoding="UTF-8"?>
<svg width="175px" height="185px" viewBox="0 0 175 185" version="1.1" xmlns="http://www.w3.org/2000/svg" xmlns:xlink="http://www.w3.org/1999/xlink">
    <!-- Generator: Sketch 58 (84663) - https://sketch.com -->
    <title>WorksheetStarIcon_Combined</title>
    <desc>Created with Sketch.</desc>
    <g id="Page-1" stroke="none" stroke-width="1" fill="none" fill-rule="evenodd">
        <g id="WorksheetStarIcon_Combined">
            <rect id="Rectangle" fill="#8C8C8C" x="5" y="41" width="122" height="144" rx="5"></rect>
            <rect id="Rectangle" fill="#EDEDED" x="0" y="36" width="122" height="144" rx="5"></rect>
            <rect id="Rectangle" fill="#D8D8D8" x="18" y="58" width="86" height="11"></rect>
            <rect id="Rectangle" fill="#D8D8D8" x="18" y="89" width="86" height="11"></rect>
            <rect id="Rectangle" fill="#D8D8D8" x="18" y="121" width="86" height="11"></rect>
            <rect id="Rectangle" fill="#D8D8D8" x="18" y="152" width="63" height="11"></rect>
            <circle id="Oval" fill="#F7B500" cx="120" cy="55" r="55"></circle>
            <circle id="Oval" fill="#FA6400" cx="120" cy="55" r="45"></circle>
            <path d="M98.9983869,43.0215008 C102.410235,43.0215008 105.821866,43.0138514 109.233715,43.0278388 C109.938007,43.0306801 110.2372,42.684271 110.441601,42.0428134 C112.478861,35.6420054 114.538129,29.2479726 116.60241,22.8554697 C116.905744,21.9165592 117.282078,21.0080279 118.229123,20.5049152 C120.542913,19.2753271 122.720726,20.3525827 123.58235,23.0718387 C125.568836,29.3406398 127.612851,35.5913007 129.589531,41.86338 C129.856473,42.7115904 130.250458,42.9777898 131.129733,42.9725445 C137.775179,42.9318934 144.420842,42.9408541 151.066287,42.9450067 C153.544165,42.9465365 155.090469,44.4368602 154.995895,46.7257823 C154.954927,47.7151789 154.57053,48.5509316 153.749874,49.1502083 C150.588624,51.4590189 139.465304,59.5807256 137.027305,61.2786761 C136.291416,61.7909681 136.205123,62.3211815 136.466617,63.1116934 C138.576877,69.4947984 140.663821,75.8857714 142.753815,82.2756517 C143.403411,84.2623128 142.624375,86.1270205 140.782583,86.8825637 C139.448089,87.4298243 138.20817,87.0681165 137.098562,86.251378 C132.019032,82.5125648 126.952142,78.7567044 121.878932,75.009149 C120.08508,73.6840526 120.0768,73.6790258 118.26704,75.0080562 C113.651445,78.3978378 109.069409,81.8346085 104.41045,85.1631948 C103.244621,85.9961063 102.225446,87.1828576 100.519195,87.1166356 C98.1223805,87.0237499 96.5037299,84.9024592 97.2461562,82.6096031 C98.7904988,77.8409607 103.11213,64.5027933 103.787875,62.6243167 C103.997071,62.0414316 103.748215,61.8672436 103.366433,61.5916463 C100.014511,59.1720285 88.899036,51.1534796 86.7325546,49.5125718 C84.5791479,47.8812804 84.4222512,45.3421133 86.322662,43.7464463 C87.113029,43.0829146 88.1025675,42.9576828 89.0844791,42.9515633 C92.389115,42.9303635 98.9983869,42.9954928 98.9983869,43.0215008" id="Fill-1" fill="#FAAE31"></path>
        </g>
    </g>
</svg>